#!OML:ASF F:\twosubjects\two\wednesday\Session 1\rory1.ASF
:FULLY-SPECIFIED
:DEGREES
148
root 2.10397 18.4737 8.38741 1.21938 -3.01092 4.75798
lowerback 1.71559 0.808662 -5.26196
upperback 0.791435 0.990452 -1.53799
thorax -0.21029 0.486374 1.34909
lowerneck -13.1336 -1.95486 -3.33749
upperneck 13.2842 -2.07743 0.544529
head 6.23414 -1.13165 0.527336
rclavicle -1.05107e-014 -1.63003e-014
rhumerus -37.3081 -5.26168 -81.4594
rradius 33.9938
rwrist 4.60773
rhand -13.9849 32.8547
rfingers 7.12502
rthumb 12.1437 3.22713
lclavicle -1.05107e-014 -1.63003e-014
lhumerus -50.262 -30.2901 73.9478
lradius 90.8928
lwrist 7.25862
lhand -28.3474 8.2888
lfingers 7.12502
lthumb -1.72141 38.2616
rfemur -22.5671 0.784671 15.1984
rtibia 68.921
rfoot 0.647603 -6.44206
rtoes -1.28057
lfemur -11.1285 -4.8514 -27.5098
ltibia 27.1591
lfoot -14.8853 -1.09135
ltoes -16.7646
149
root 2.10764 18.4639 8.55322 1.19272 -2.62054 4.96806
lowerback 1.76175 0.70611 -5.53479
upperback 1.11206 0.860689 -1.53811
thorax 0.0983465 0.408424 1.50556
lowerneck -14.2147 -1.9371 -3.1042
upperneck 13.6102 -2.04249 0.433432
head 6.51779 -1.11181 0.446842
rclavicle -1.6201e-014 -1.98785e-014
rhumerus -37.4564 -6.40815 -80.81
rradius 33.0463
rwrist 4.98396
rhand -14.2599 33.3526
rfingers 7.12502
rthumb 11.8785 3.70955
lclavicle -1.6201e-014 -1.98785e-014
lhumerus -49.6194 -29.7502 73.5499
lradius 91.0858
lwrist 7.08009
lhand -27.8288 7.8614
lfingers 7.12502
lthumb -1.2206 37.8377
rfemur -23.6307 0.199852 14.9397
rtibia 68.7642
rfoot -0.0783523 -6.50587
rtoes -2.11264
lfemur -10.5668 -4.77265 -27.8412
ltibia 27.2389
lfoot -15.373 -1.26691
ltoes -18.2605
150
root 2.11045 18.4523 8.71969 1.15352 -2.13763 5.43921
lowerback 1.93948 0.624069 -5.96217
upperback 1.09966 0.730621 -1.68132
thorax -0.00802507 0.344796 1.59694
lowerneck -14.2525 -1.92901 -2.86265
upperneck 13.77 -2.07549 0.396662
head 6.57275 -1.11909 0.391662
rclavicle 5.65294e-015 -2.98177e-015
rhumerus -38.3938 -7.71739 -79.9786
rradius 32.386
rwrist 5.83198
rhand -14.3493 33.5249
rfingers 7.12502
rthumb 11.7923 3.87691
lclavicle 5.65294e-015 -2.98177e-015
lhumerus -49.6433 -29.7973 73.4292
lradius 91.3103
lwrist 7.02728
lhand -27.4756 7.58827
lfingers 7.12502
lthumb -0.879438 37.5662
rfemur -24.5334 -0.348284 14.3974
rtibia 68.3502
rfoot -1.31682 -6.72286
rtoes -1.10396
lfemur -10.0221 -4.61686 -28.4292
ltibia 27.3078
lfoot -15.4244 -1.875
ltoes -16.2411
151
root 2.105 18.4411 8.88262 1.33055 -1.73134 5.51903
lowerback 2.23648 0.482212 -6.23427
upperback 0.786908 0.497778 -1.59911
thorax -0.482958 0.245975 1.83436
lowerneck -14.1537 -1.85439 -2.83226
upperneck 14.0484 -1.99443 0.458057
head 6.64423 -1.07498 0.414301
rclavicle 3.26131e-015 5.71506e-015
rhumerus -39.5431 -8.43755 -79.1965
rradius 31.7067
rwrist 6.12679
rhand -14.4453 33.1905
rfingers 7.12502
rthumb 11.6997 3.53722
lclavicle 3.26131e-015 5.71506e-015
lhumerus -50.0256 -29.88 73.5924
lradius 91.4131
lwrist 7.52898
lhand -27.5482 7.83995
lfingers 7.12502
lthumb -0.949557 37.8176
rfemur -25.6654 -0.627565 14.3618
rtibia 67.6895
rfoot -3.35301 -7.1756
rtoes 1.07378
lfemur -9.69913 -4.43954 -28.5188
ltibia 27.3789
lfoot -15.2026 -2.63246
ltoes -12.3911
152
root 2.09704 18.4314 9.05095 1.39942 -1.37022 5.40261
lowerback 2.31855 0.395375 -6.29444
upperback 0.70392 0.371354 -1.43099
thorax -0.606147 0.187806 2.04366
lowerneck -14.1166 -1.87609 -3.14881
upperneck 14.1716 -2.00999 0.766569
head 6.68447 -1.07371 0.563502
rclavicle -1.74931e-014 8.39865e-015
rhumerus -40.3325 -9.24626 -78.3494
rradius 30.8489
rwrist 5.88841
rhand -14.4966 32.7088
rfingers 7.12502
rthumb 11.6502 3.05267
lclavicle -1.74931e-014 8.39865e-015
lhumerus -50.0813 -29.8043 73.7081
lradius 91.4423
lwrist 7.93871
lhand -27.8346 7.90849
lfingers 7.12502
lthumb -1.22616 37.8847
rfemur -26.5692 -0.782315 14.5706
rtibia 66.8157
rfoot -5.10754 -7.38997
rtoes 0.854603
lfemur -9.2075 -4.5108 -28.4107
ltibia 27.478
lfoot -15.5962 -2.93858
ltoes -11.2183
153
root 2.09772 18.4206 9.21231 1.45811 -0.983584 5.55217
lowerback 2.10949 0.331838 -6.39711
upperback 0.894954 0.311218 -1.42905
thorax -0.28725 0.145122 2.10617
lowerneck -14.3506 -1.96441 -3.29999
upperneck 14.3688 -2.1155 0.918832
head 6.79371 -1.11982 0.62426
rclavicle 1.84357e-014 -2.07481e-014
rhumerus -40.8482 -10.7146 -77.3124
rradius 30.0305
rwrist 6.09503
rhand -14.4048 32.5578
rfingers 7.12502
rthumb 11.7387 2.90671
lclavicle 1.84357e-014 -2.07481e-014
lhumerus -49.62 -29.6796 73.5455
lradius 91.4587
lwrist 8.0305
lhand -28.1379 7.4218
lfingers 7.12502
lthumb -1.51914 37.3961
rfemur -27.4112 -1.06797 14.4433
rtibia 65.7533
rfoot -6.11066 -7.44871
rtoes 0.133936
lfemur -8.81101 -4.62891 -28.626
ltibia 27.6269
lfoot -16.3141 -3.04957
ltoes -11.2441
154
root 2.10329 18.4119 9.36991 1.67213 -0.587138 5.9131
lowerback 2.1294 0.1839 -6.74913
upperback 0.800141 0.100593 -1.50511
thorax -0.378608 0.0442135 2.22891
lowerneck -14.3965 -1.94953 -3.09819
upperneck 14.6072 -2.11565 0.787475
head 6.8748 -1.12146 0.547926
rclavicle -2.59352e-015 -4.4975e-015
rhumerus -41.806 -12.0195 -76.2699
rradius 29.3602
rwrist 6.65043
rhand -14.405 32.693
rfingers 7.12502
rthumb 11.7385 3.04187
lclavicle -2.59352e-015 -4.4975e-015
lhumerus -49.636 -29.5503 73.4537
lradius 91.5691
lwrist 8.22009
lhand -28.6152 7.07217
lfingers 7.12502
lthumb -1.98008 37.0427
rfemur -28.3982 -1.45485 14.0583
rtibia 64.5002
rfoot -7.12221 -7.54111
rtoes 0.424752
lfemur -8.56708 -4.55772 -29.0965
ltibia 27.7606
lfoot -16.4298 -3.41523
ltoes -8.30813
155
root 2.10148 18.4233 9.54051 1.85554 -0.242106 5.91936
lowerback 2.19887 0.127853 -6.75296
upperback 0.526295 0.0057582 -1.50758
thorax -0.692052 0.0120493 2.23072
lowerneck -13.5742 -1.97917 -3.01284
upperneck 14.3674 -2.20924 0.831162
head 6.65727 -1.15941 0.546497
rclavicle 1.54431e-014 1.6524e-015
rhumerus -43.1717 -13.1402 -75.1739
rradius 28.6272
rwrist 6.78376
rhand -14.7872 32.4448
rfingers 7.12502
rthumb 11.37 2.77306
lclavicle 1.54431e-014 1.6524e-015
lhumerus -50.0114 -29.8569 73.553
lradius 91.7334
lwrist 8.59309
lhand -28.637 7.50985
lfingers 7.12502
lthumb -2.00111 37.4802
rfemur -29.1489 -1.58713 14.093
rtibia 62.9515
rfoot -7.81587 -7.68048
rtoes 0.793397
lfemur -8.21961 -4.6757 -29.1463
ltibia 27.7598
lfoot -16.4797 -3.70685
ltoes -4.94528
156
root 2.09395 18.4516 9.71585 1.92199 0.235609 5.82124
lowerback 2.16169 0.0270487 -6.69673
upperback 0.534644 -0.122815 -1.44049
thorax -0.651155 -0.0534738 2.272
lowerneck -13.2848 -2.01007 -2.90208
upperneck 14.2956 -2.27311 0.770724
head 6.58362 -1.18989 0.505657
rclavicle 8.97326e-015 -7.05686e-015
rhumerus -44.0548 -14.2763 -74.0961
rradius 27.7021
rwrist 6.7885
rhand -15.6871 32.2495
rfingers 7.12502
rthumb 10.502 2.53183
lclavicle 8.97326e-015 -7.05686e-015
lhumerus -49.9166 -29.882 73.4486
lradius 91.8291
lwrist 8.65714
lhand -28.2415 7.7763
lfingers 7.12502
lthumb -1.61913 37.7499
rfemur -29.5496 -1.69371 14.232
rtibia 61.1149
rfoot -7.98152 -7.84264
rtoes 0.856018
lfemur -7.38498 -5.5245 -28.9895
ltibia 27.5454
lfoot -16.7919 -4.10928
ltoes 0.194878
